<?xml version="1.0" encoding="UTF-8" standalone="no"?>
<!-- Created with Vectornator (http://vectornator.io/) -->

<svg
   height="284.8392"
   stroke-miterlimit="10"
   style="clip-rule:evenodd;fill-rule:nonzero;stroke-linecap:round;stroke-linejoin:round"
   version="1.1"
   viewBox="0 0 304.05999 284.8392"
   width="304.06"
   xml:space="preserve"
   id="svg53"
   xmlns="http://www.w3.org/2000/svg"
   xmlns:svg="http://www.w3.org/2000/svg"
   xmlns:vectornator="http://vectornator.io">
<defs
   id="defs9" />





<g
   id="Corazon"
   vectornator:layerName="Corazon"
   transform="translate(-726.75,-775.5)">
<path
   d="m 879.688,785.5 c -17.141,0 -31.032,14.947 -31.032,33.406 0,3.312 0.615,6.428 1.469,9.438 -11.361,-7.556 -24.639,-12.125 -39,-12.125 -41.083,0 -74.375,35.636 -74.375,79.593 0,31.493 19.813,54.184 42.51,73.951 0,0 10.732,12.554 49.138,34.967 38.406,22.4 46.758,37.24 46.758,37.24 l 7.938,8.37 c 0,0 8.59,-20.54 56.638,-52.285 51.463,-34.67 59.833,-46.153 59.833,-46.153 17.465,-13.271 21.245,-39.143 21.245,-62.527 0,-40.069 -33.002,-72.531 -73.748,-72.531 -13.725,0 -26.423,3.903 -37.406,10.344 0.648,-2.657 1.094,-5.406 1.094,-8.282 0,-18.459 -13.922,-33.406 -31.062,-33.406 z"
   fill="#843030"
   fill-opacity="0"
   fill-rule="nonzero"
   opacity="1"
   stroke="#000000"
   stroke-linecap="round"
   stroke-linejoin="round"
   stroke-width="20"
   vectornator:layerName="Curve"
   id="path34" />
<path
   d="m 879.342,814.727 c 0,-0.126 0.082,-0.229 0.184,-0.229 0.101,0 0.183,0.103 0.183,0.229 0,0.126 -0.082,0.228 -0.183,0.228 -0.102,0 -0.184,-0.102 -0.184,-0.228 z"
   fill="#843030"
   fill-opacity="0"
   fill-rule="nonzero"
   opacity="1"
   stroke="#000000"
   stroke-linecap="round"
   stroke-linejoin="miter"
   stroke-width="20"
   id="path36" />
</g>


</svg>
