<?xml version="1.0" encoding="UTF-8" standalone="no"?>
<!-- Created with Vectornator (http://vectornator.io/) -->

<svg
   height="197.22"
   stroke-miterlimit="10"
   style="clip-rule:evenodd;fill-rule:nonzero;stroke-linecap:round;stroke-linejoin:round"
   version="1.1"
   viewBox="0 0 297.24999 197.22"
   width="297.25"
   xml:space="preserve"
   id="svg53"
   xmlns="http://www.w3.org/2000/svg"
   xmlns:svg="http://www.w3.org/2000/svg"
   xmlns:vectornator="http://vectornator.io">
<defs
   id="defs9" />



<g
   id="Pez"
   vectornator:layerName="Pez"
   transform="translate(-755.25,-1424.31)">
<path
   d="m 889.625,1434.31 c -68.686,0 -124.375,39.36 -124.375,87.91 0,48.55 55.69,87.9 124.375,87.9 29.096,0 55.784,-7.1 76.969,-18.93 6.289,12.03 18.672,20.34 33.125,20.34 20.761,0 37.591,-16.94 37.591,-37.81 0,-16.59 -10.68,-30.54 -25.47,-35.63 1.34,-5.15 2.13,-10.44 2.13,-15.87 0,-0.09 -0.03,-0.17 -0.03,-0.25 16.38,-4.04 28.56,-18.35 28.56,-35.56 0,-20.34 -16.93,-36.82 -37.81,-36.82 -10.443,0 -19.91,4.12 -26.752,10.79 -22.538,-16.08 -53.764,-26.07 -88.313,-26.07 z"
   fill="#843030"
   fill-opacity="0"
   fill-rule="nonzero"
   opacity="1"
   stroke="#000000"
   stroke-linecap="round"
   stroke-linejoin="round"
   stroke-width="20"
   id="path24" />
<path
   d="m 882.277,1464.83 c 0,-2.52 1.95,-4.56 4.356,-4.56 2.405,0 4.355,2.04 4.355,4.56 0,2.52 -1.95,4.57 -4.355,4.57 -2.406,0 -4.356,-2.05 -4.356,-4.57 z"
   fill="#843030"
   fill-opacity="0"
   fill-rule="nonzero"
   opacity="1"
   stroke="#000000"
   stroke-linecap="round"
   stroke-linejoin="round"
   stroke-width="20"
   id="path26" />
</g>




</svg>
