<?xml version="1.0" encoding="UTF-8" standalone="no"?>
<!-- Created with Vectornator (http://vectornator.io/) -->

<svg
   height="295.49701"
   stroke-miterlimit="10"
   style="clip-rule:evenodd;fill-rule:nonzero;stroke-linecap:round;stroke-linejoin:round"
   version="1.1"
   viewBox="0 0 438.463 295.49701"
   width="438.46301"
   xml:space="preserve"
   id="svg53"
   xmlns="http://www.w3.org/2000/svg"
   xmlns:svg="http://www.w3.org/2000/svg"
   xmlns:vectornator="http://vectornator.io">
<defs
   id="defs9" />







<g
   id="Rectángulo"
   vectornator:layerName="Rectángulo"
   transform="translate(-207.263,-106.72)">
<path
   d="m 273.052,207.091 h 306.885 c 30.811,0 55.789,24.977 55.789,55.789 v 73.548 c 0,30.812 -24.978,55.789 -55.789,55.789 H 273.052 c -30.811,0 -55.789,-24.977 -55.789,-55.789 V 262.88 c 0,-30.812 24.978,-55.789 55.789,-55.789 z"
   fill="#843030"
   fill-opacity="0"
   fill-rule="nonzero"
   opacity="1"
   stroke="#000000"
   stroke-linecap="butt"
   stroke-linejoin="miter"
   stroke-width="20"
   id="path44" />
<path
   d="m 328.467,204.52 59.138,-39.211"
   fill="none"
   opacity="1"
   stroke="#000000"
   stroke-linecap="butt"
   stroke-linejoin="miter"
   stroke-width="20"
   id="path46" />
<path
   d="m 469.24,159.524 55.924,44.353"
   fill="none"
   opacity="1"
   stroke="#000000"
   stroke-linecap="butt"
   stroke-linejoin="miter"
   stroke-width="20"
   id="path48" />
<path
   d="m 390.061,154.324 c 0,-20.768 17.411,-37.604 38.889,-37.604 21.478,0 38.89,16.836 38.89,37.604 0,20.768 -17.412,37.603 -38.89,37.603 -21.478,0 -38.889,-16.835 -38.889,-37.603 z"
   fill="#843030"
   fill-opacity="0"
   fill-rule="nonzero"
   opacity="1"
   stroke="#000000"
   stroke-linecap="butt"
   stroke-linejoin="miter"
   stroke-width="20"
   id="path50" />
</g>
</svg>
